<svg xmlns="http://www.w3.org/2000/svg" style="border: 0 !important; clip: rect(0 0 0 0) !important; height: 1px !important; margin: -1px !important; overflow: hidden !important; padding: 0 !important; position: absolute !important; width: 1px !important;" class="root-svg-symbols-element">
    <symbol id="favicon" viewBox="0 0 512 512">
      <g fill="none" fill-rule="evenodd"><path fill="#1C1D1D" d="M0 0h512v512H0z"/><path fill="#FFF" d="M171.68 292.32v-39.6h71.28V412h-36.08v-32.56c-6.6 22.44-20.68 36.08-47.96 36.08C115.8 415.52 96 381.2 96 335V190.68c0-46.64 22.44-80.52 75.24-80.52 55.44 0 71.72 30.8 71.72 74.8v26.4H197.2V181c0-18.48-7.04-29.04-25.08-29.04s-25.96 12.76-25.96 30.8v160.16c0 18.04 7.48 30.8 24.64 30.8 16.28 0 24.64-9.24 24.64-28.6v-52.8h-23.76zM270.46 412V113.68h74.36c50.6 0 69.08 25.08 69.08 66.88v62.92c0 41.8-18.48 67.32-69.08 67.32h-24.2V412h-50.16zm68.64-257.4h-18.48v117.48h18.48c17.16 0 24.64-8.36 24.64-24.64V178.8c0-16.28-7.48-24.2-24.64-24.2z"/></g>
    </symbol>
    <symbol id="logo-pinkman" viewBox="0 0 69 10">
      <path d="M10.113 1.63l.428.347v5.762l-.428.139v1.596h2.853V7.878l-.428-.14V1.978l.428-.347V.102h-2.853zM6.19.727C5.407.241 4.409.102 3.838.102H.13v9.372h1.997V6.56h1.64c.927 0 1.854-.278 2.567-.695.642-.416 1.356-1.18 1.356-2.499.07-1.388-.785-2.221-1.498-2.638zM5.122 4.545c-.428.278-.998.348-1.355.348h-1.64V1.769h1.64c.071 0 1.997.069 1.997 1.596.071.556-.143.972-.642 1.18zM45.845 1.769l-2.852 3.887L40.14 1.77V.102h-1.997v9.372h1.997v-4.79l2.781 3.818H43.063l2.782-3.818v4.79h1.997V.102h-1.997zM52.336.102l.855 1.667-3.78 7.636h1.997l.999-1.944h3.637l.999 1.944h1.997L54.404.033h-2.068v.07zm.855 5.762l.999-2.013.998 2.013h-1.997zM66.885.102v5.346l-4.28-3.61V.102H60.68v9.372h1.926V4.198l5.848 5.276h.357V.102zM36.003.102h-2.282l-3.709 3.68h-.428V.102h-1.997v9.372h1.997V5.448h.285l3.852 4.026h2.425l-4.636-4.79zM22.523 5.448l-4.208-3.749V.102h-1.997v9.372h1.997V4.13l5.849 5.345h.356V.102h-1.997z" fill="currentColor"/>
    </symbol></svg>