<svg width="26" height="24" viewBox="0 0 26 24" fill="none" xmlns="http://www.w3.org/2000/svg">
<path d="M17.3337 8.71002H0V10.8763H17.3337C20.3206 10.8763 22.75 8.44594 22.75 5.46002C22.75 2.47314 20.3196 0.0437012 17.3337 0.0437012C14.3468 0.0437012 11.9174 2.4741 11.9174 5.46002H14.0837C14.0837 3.66847 15.5421 2.21002 17.3337 2.21002C19.1252 2.21002 20.5837 3.66847 20.5837 5.46002C20.5837 7.25158 19.1252 8.71002 17.3337 8.71002Z" fill="#4AF6CD"/>
<path d="M20.5837 13H0V15.1663H20.5837C22.3752 15.1663 23.8337 16.6248 23.8337 18.4163C23.8337 20.2079 22.3752 21.6663 20.5837 21.6663C18.7921 21.6663 17.3337 20.2079 17.3337 18.4163H15.1674C15.1674 21.4032 17.5978 23.8326 20.5837 23.8326C23.5706 23.8326 26 21.4022 26 18.4163C26 15.4294 23.5696 13 20.5837 13Z" fill="#4AF6CD"/>
</svg>
